PathFileType	4	(X/Y/Z)	F:\MotionCapture\20160217\3\Generated_files\2_Test05-Dynamic.trc
DataRate	CameraRate	NumFrames	NumMarkers	Units	OrigDataRate	OrigDataStartFrame	OrigNumFrames
120.00	120.00	       4	39	mm	120.00	265	       704
Frame#	Time	Top.Head			Front.Head			Rear.Head			R.Shoulder			R.Offset			R.Elbow			R.Wrist			L.Shoulder			L.Elbow			L.Wrist			R.ASIS			L.ASIS			V.Sacral			R.Thigh			R.Knee			R.Shank			R.Ankle			R.Heel			R.Toe			L.Thigh			L.Knee			L.Shank			L.Ankle			L.Heel			L.Toe			R1			R2			R3			R4			R5			R6			R7			L1			L2			L3			L4			L5			L6			L7			V_Mid_ASIS			V_Pelvis_Origin			V_R.Hip_JC			V_L.Hip_JC			V_R.Knee_JC			V_L.Knee_JC			V_R.Ankle_JC			V_L.Ankle_JC			V_Mid_Hip			V_Mid_Shoulder			V_R.Hand			V_L.Hand			V_R.Toe_Offset_Static			V_L.Toe_Offset_Static			V_R.Toe_Offset			V_L.Toe_Offset			
		X1	Y1	Z1	X2	Y2	Z2	X3	Y3	Z3	X4	Y4	Z4	X5	Y5	Z5	X6	Y6	Z6	X7	Y7	Z7	X8	Y8	Z8	X9	Y9	Z9	X10	Y10	Z10	X11	Y11	Z11	X12	Y12	Z12	X13	Y13	Z13	X14	Y14	Z14	X15	Y15	Z15	X16	Y16	Z16	X17	Y17	Z17	X18	Y18	Z18	X19	Y19	Z19	X20	Y20	Z20	X21	Y21	Z21	X22	Y22	Z22	X23	Y23	Z23	X24	Y24	Z24	X25	Y25	Z25	X26	Y26	Z26	X27	Y27	Z27	X28	Y28	Z28	X29	Y29	Z29	X30	Y30	Z30	X31	Y31	Z31	X32	Y32	Z32	X33	Y33	Z33	X34	Y34	Z34	X35	Y35	Z35	X36	Y36	Z36	X37	Y37	Z37	X38	Y38	Z38	X39	Y39	Z39	

265	2.200	1463.13123	232.55630	1700.90833	1343.44360	226.13216	1628.42383	1564.72437	230.04268	1622.15027	1489.13416	423.45441	1393.53027	1637.82373	159.85861	1256.42200	1484.61621	549.41125	1077.70471	1285.67810	527.87683	907.63019	1483.21313	15.26792	1393.80762	1560.92542	-106.65482	1093.91785	1482.44080	-157.48010	851.80859	1461.16663	368.54910	921.18518	1431.85181	82.60232	924.19305	1671.34094	196.84625	924.92767	1510.44641	317.89801	537.61749	1624.85181	357.54251	449.05563	1687.68884	274.43600	227.12497	1790.20386	342.11905	79.07662	1858.79468	279.81931	65.27776	1651.75146	326.85629	42.76450	1314.10706	111.98675	642.99792	1329.94421	53.93602	477.22592	1257.11707	122.65913	356.32117	1214.47546	55.76974	85.94340	1264.67322	117.63079	41.89979	1082.50195	57.07813	116.12857	1602.77905	308.19412	40.13043	1645.09595	289.56174	48.60873	1739.08777	253.74261	61.58914	1815.79492	251.07893	61.00471	1829.17407	323.98300	61.99190	1756.14124	351.62729	41.77737	1690.81348	371.60254	37.97915	1040.34351	76.32619	134.92186	1071.41113	90.37823	124.22447	1154.72510	137.71054	98.23859	1227.62268	145.29547	58.22566	1240.38525	74.90159	50.18009	1166.87659	43.64774	71.44534	1115.16443	29.14283	94.83337	
266	2.208	1453.22205	230.96278	1699.19250	1333.51807	224.78261	1627.04932	1555.03931	228.72220	1620.48694	1479.18994	421.85483	1391.69324	1627.40125	158.64954	1254.28674	1473.10950	547.99585	1076.25549	1272.56873	525.85016	908.35016	1473.04651	13.62651	1391.81836	1551.60132	-108.27055	1092.69714	1475.82312	-160.25052	850.28625	1451.41565	368.52774	919.29492	1421.39771	82.16068	922.27606	1660.03418	195.22011	922.93091	1502.30237	318.39612	535.99615	1618.02344	357.62201	448.76566	1683.36719	274.74603	226.90570	1789.26379	341.97260	80.87656	1858.29578	279.36768	68.47232	1651.67627	326.88382	42.68780	1303.34082	113.08213	642.45886	1318.14453	53.97944	476.12717	1245.99939	123.03033	354.61667	1202.91211	55.87654	84.40993	1252.49426	117.83688	39.97404	1071.17627	57.40192	115.09518	1602.60632	308.39984	39.90117	1644.83533	289.69629	48.49499	1738.44202	253.71062	63.26790	1815.98132	250.02530	64.05552	1828.74768	324.01794	64.68971	1755.52576	351.48477	42.71503	1690.73291	371.44702	37.94156	1028.68640	76.71395	133.73883	1059.92969	91.15992	123.26346	1143.89172	138.45087	96.72930	1215.50488	145.81323	56.48951	1228.71777	74.97700	48.55270	1158.17883	39.10550	69.12229	1103.15332	29.50262	93.44214	
267	2.217	1443.63245	229.54643	1697.99670	1323.58130	223.23978	1625.52661	1545.41052	227.05937	1618.82629	1469.27881	420.18890	1390.48669	1617.39771	157.11011	1252.44141	1462.00610	546.21326	1075.14429	1260.18042	523.84937	908.25128	1463.25110	12.05813	1390.40112	1541.82092	-109.87215	1091.31152	1468.11035	-162.70889	848.30627	1440.24207	368.32486	917.54547	1408.78113	82.12797	920.77917	1648.91321	193.11006	920.98212	1493.93201	319.05893	534.42548	1610.50024	357.48288	447.68384	1680.18701	275.60959	226.45187	1789.06824	342.42807	83.61124	1857.29761	279.09579	71.88781	1651.63123	326.99963	42.75894	1290.85571	114.37675	642.79840	1305.60608	53.93476	475.27255	1234.28357	123.01920	352.81277	1193.86340	56.21318	82.25183	1244.03809	118.39208	37.89013	1062.54346	58.54788	112.95318	1602.32068	308.50571	39.55209	1644.55103	289.54184	48.24083	1737.40076	253.94917	64.47726	1815.05225	250.28397	66.91028	1827.63586	323.14474	67.52679	1754.97815	351.70306	43.42408	1690.62573	371.28885	37.82977	1019.19287	78.09416	130.66661	1051.06519	91.52737	120.56358	1134.62268	138.76799	94.29685	1207.25037	146.05373	54.27457	1219.80054	75.27188	46.29670	1147.94641	40.54276	66.05952	1093.82886	30.40325	90.79242	
268	2.225	1433.81641	228.14790	1696.60046	1314.02466	221.81233	1624.67639	1535.54456	225.37251	1617.47119	1459.30542	418.61008	1388.97949	1606.36218	155.49887	1250.40991	1450.84167	544.38080	1073.61584	1248.06262	521.92133	908.75171	1453.06494	10.24259	1388.69507	1532.53381	-112.12687	1089.79102	1460.34241	-165.24019	847.14349	1430.07898	367.67545	915.95795	1396.66284	81.95570	919.66760	1637.57324	191.39622	919.09839	1485.22400	319.45288	532.66248	1603.02136	357.70465	447.17203	1675.71167	275.77585	227.16452	1787.91602	342.57104	86.08992	1856.38904	279.55167	75.95727	1651.55164	327.13882	42.92590	1278.76111	115.63660	643.43793	1292.52808	53.90518	474.26337	1223.65955	123.66383	350.63522	1186.39478	57.45710	78.89206	1237.66345	118.82124	35.46565	1055.23389	59.97174	108.51433	1602.16345	308.75891	39.53197	1644.47119	289.87320	48.36483	1736.99475	253.49286	65.90915	1813.68433	249.84473	69.44290	1826.95825	324.10379	70.54134	1754.44666	352.06409	44.72276	1690.47791	371.22345	37.79361	1011.35089	78.50538	125.88657	1043.71252	93.10600	116.29021	1127.92859	140.22507	90.14727	1201.04102	146.55295	51.29416	1213.22766	75.88480	43.49808	1142.39502	40.77327	63.33278	1087.03796	31.54778	87.02587	
